<svg width="12" height="12" viewBox="0 0 12 12" fill="none" xmlns="http://www.w3.org/2000/svg">
<g clip-path="url(#clip0_276_1536)">
<g clip-path="url(#clip1_276_1536)">
<path fill-rule="evenodd" clip-rule="evenodd" d="M2.83669 7.51924L6 11.25L9.16463 7.5177C9.18139 7.49782 9.29389 7.34993 9.29389 7.34993L9.29445 7.34899C9.83458 6.63743 10.1263 5.76833 10.125 4.875C10.125 3.78098 9.69041 2.73177 8.91682 1.95818C8.14323 1.1846 7.09402 0.75 6 0.75C4.90599 0.75 3.85678 1.1846 3.08319 1.95818C2.3096 2.73177 1.875 3.78098 1.875 4.875C1.87374 5.7687 2.1657 6.63813 2.70612 7.34993C2.70612 7.34993 2.81873 7.49783 2.83669 7.51924ZM3.3227 6.92177C3.312 6.90768 3.3048 6.8982 3.30469 6.89813C2.86294 6.31625 2.62417 5.60557 2.625 4.875C2.625 3.97989 2.98058 3.12145 3.61352 2.48851C4.24645 1.85558 5.1049 1.5 6 1.5C6.89511 1.5 7.75355 1.85558 8.38649 2.48851C9.01942 3.12145 9.375 3.97989 9.375 4.875C9.37587 5.60517 9.13728 6.31548 8.6958 6.89708C8.69562 6.89738 8.60772 7.01351 8.59125 7.03421L6 10.0905L3.41217 7.03852C3.39792 7.0208 3.34941 6.95694 3.3227 6.92177ZM4.95831 6.43401C5.26665 6.64003 5.62916 6.75 6 6.75C6.49711 6.74944 6.97369 6.55171 7.3252 6.2002C7.67671 5.84869 7.87444 5.37211 7.875 4.875C7.875 4.50416 7.76503 4.14165 7.55901 3.83331C7.35298 3.52496 7.06014 3.28464 6.71753 3.14273C6.37492 3.00081 5.99792 2.96368 5.63421 3.03603C5.27049 3.10838 4.9364 3.28695 4.67418 3.54918C4.41195 3.8114 4.23338 4.14549 4.16103 4.50921C4.08868 4.87292 4.12581 5.24992 4.26773 5.59253C4.40964 5.93514 4.64996 6.22798 4.95831 6.43401ZM5.37498 3.9396C5.55999 3.81598 5.7775 3.75 6 3.75C6.29827 3.75033 6.58423 3.86896 6.79513 4.07987C7.00604 4.29078 7.12467 4.57673 7.125 4.875C7.125 5.09751 7.05902 5.31501 6.9354 5.50002C6.81179 5.68502 6.63609 5.82922 6.43052 5.91437C6.22495 5.99951 5.99875 6.02179 5.78052 5.97838C5.5623 5.93498 5.36184 5.82783 5.20451 5.6705C5.04717 5.51316 4.94003 5.31271 4.89662 5.09448C4.85321 4.87625 4.87549 4.65005 4.96064 4.44448C5.04578 4.23892 5.18998 4.06321 5.37498 3.9396Z" fill="#616161"/>
</g>
</g>
<defs>
<clipPath id="clip0_276_1536">
<rect width="12" height="12" fill="white"/>
</clipPath>
<clipPath id="clip1_276_1536">
<rect width="12" height="12" fill="white"/>
</clipPath>
</defs>
</svg>
