<svg width="12" height="13" viewBox="0 0 12 13" fill="none" xmlns="http://www.w3.org/2000/svg">
<g clip-path="url(#clip0_276_1510)">
<g clip-path="url(#clip1_276_1510)">
<path d="M10.5 2.75H1.5C1.30109 2.75 1.11032 2.82902 0.96967 2.96967C0.829018 3.11032 0.75 3.30109 0.75 3.5V9.5C0.75 9.69891 0.829018 9.88968 0.96967 10.0303C1.11032 10.171 1.30109 10.25 1.5 10.25H10.5C10.6989 10.25 10.8897 10.171 11.0303 10.0303C11.171 9.88968 11.25 9.69891 11.25 9.5V3.5C11.25 3.30109 11.171 3.11032 11.0303 2.96967C10.8897 2.82902 10.6989 2.75 10.5 2.75ZM9.675 3.5L6 6.0425L2.325 3.5H9.675ZM1.5 9.5V3.84125L5.78625 6.8075C5.84902 6.85105 5.9236 6.87438 6 6.87438C6.0764 6.87438 6.15098 6.85105 6.21375 6.8075L10.5 3.84125V9.5H1.5Z" fill="#616161"/>
</g>
</g>
<defs>
<clipPath id="clip0_276_1510">
<rect width="12" height="12" fill="white" transform="translate(0 0.5)"/>
</clipPath>
<clipPath id="clip1_276_1510">
<rect width="12" height="12" fill="white" transform="translate(0 0.5)"/>
</clipPath>
</defs>
</svg>
