<svg width="12" height="13" viewBox="0 0 12 13" fill="none" xmlns="http://www.w3.org/2000/svg">
<path d="M9.5 2C9.76522 2 10.0196 2.10536 10.2071 2.29289C10.3946 2.48043 10.5 2.73478 10.5 3V10C10.5 10.2652 10.3946 10.5196 10.2071 10.7071C10.0196 10.8946 9.76522 11 9.5 11H2.5C2.23478 11 1.98043 10.8946 1.79289 10.7071C1.60536 10.5196 1.5 10.2652 1.5 10V3C1.5 2.73478 1.60536 2.48043 1.79289 2.29289C1.98043 2.10536 2.23478 2 2.5 2H9.5ZM9.25 9.75V7.1C9.25 6.6677 9.07827 6.2531 8.77258 5.94742C8.4669 5.64173 8.0523 5.47 7.62 5.47C7.195 5.47 6.7 5.73 6.46 6.12V5.565H5.065V9.75H6.46V7.285C6.46 6.9 6.77 6.585 7.155 6.585C7.34065 6.585 7.5187 6.65875 7.64997 6.79003C7.78125 6.9213 7.855 7.09935 7.855 7.285V9.75H9.25ZM3.44 4.78C3.66278 4.78 3.87644 4.6915 4.03397 4.53397C4.1915 4.37644 4.28 4.16278 4.28 3.94C4.28 3.475 3.905 3.095 3.44 3.095C3.21589 3.095 3.00096 3.18403 2.84249 3.34249C2.68403 3.50096 2.595 3.71589 2.595 3.94C2.595 4.405 2.975 4.78 3.44 4.78ZM4.135 9.75V5.565H2.75V9.75H4.135Z" fill="#616161"/>
</svg>
