<svg width="10" height="11" viewBox="0 0 10 11" fill="none" xmlns="http://www.w3.org/2000/svg">
<path d="M8.74967 10.375H8.68592C1.31717 9.95125 0.270916 3.73375 0.124666 1.83625C0.112881 1.68872 0.130324 1.54031 0.175994 1.39953C0.221664 1.25875 0.294663 1.12836 0.39081 1.01584C0.486956 0.903325 0.60436 0.810883 0.736295 0.743815C0.868229 0.676747 1.0121 0.636371 1.15967 0.625H3.22592C3.37612 0.624855 3.52292 0.669816 3.64728 0.754061C3.77164 0.838306 3.86784 0.957951 3.92342 1.0975L4.49342 2.5C4.5483 2.63633 4.56192 2.78578 4.53258 2.92978C4.50325 3.07379 4.43225 3.206 4.32842 3.31L3.52967 4.11625C3.65443 4.82528 3.99398 5.47888 4.50238 5.98861C5.01077 6.49834 5.66347 6.83961 6.37217 6.96625L7.18592 6.16C7.29148 6.05731 7.42494 5.98797 7.56965 5.96063C7.71436 5.93329 7.86391 5.94915 7.99967 6.00625L9.41342 6.5725C9.55086 6.62983 9.66813 6.72678 9.75027 6.851C9.83241 6.97522 9.87572 7.12108 9.87467 7.27V9.25C9.87467 9.54837 9.75614 9.83452 9.54516 10.0455C9.33418 10.2565 9.04803 10.375 8.74967 10.375ZM1.24967 1.375C1.15021 1.375 1.05483 1.41451 0.984501 1.48484C0.914174 1.55516 0.874666 1.65054 0.874666 1.75V1.78C1.04717 4 2.15342 9.25 8.72717 9.625C8.77643 9.62805 8.82581 9.62133 8.87248 9.60525C8.91914 9.58917 8.96218 9.56403 8.99911 9.53128C9.03604 9.49854 9.06614 9.45882 9.08768 9.41441C9.10923 9.37 9.1218 9.32178 9.12467 9.2725V7.27L7.71092 6.70375L6.63467 7.7725L6.45467 7.75C3.19217 7.34125 2.74967 4.07875 2.74967 4.045L2.72717 3.865L3.79217 2.78875L3.22967 1.375H1.24967Z" fill="#616161"/>
</svg>
