<?xml version="1.0" encoding="utf-8"?>
<!-- Generator: Adobe Illustrator 23.0.4, SVG Export Plug-In . SVG Version: 6.00 Build 0)  -->
<svg version="1.1" id="Layer_1" xmlns="http://www.w3.org/2000/svg" xmlns:xlink="http://www.w3.org/1999/xlink" x="0px" y="0px"
	 width="98.2px" height="18px" viewBox="0 0 98.2 18" style="enable-background:new 0 0 98.2 18;" xml:space="preserve">
<style type="text/css">
	.st0{fill:#0B5ED7;}
</style>
<path class="st0" d="M33.3,0.4v17.2H28v-6.8h-5.5v6.8h-5.2V0.4h5.2v6.8H28V0.4H33.3z M51.7,14.2V0.4h-5.2v17.2h9.5l0.8-3.4H51.7
	L51.7,14.2z M42.5,0.4h-5.3v17.2h5.2L42.5,0.4L42.5,0.4z M63.9,0.4h-5.3v17.2h5.2L63.9,0.4L63.9,0.4z M89.9,4.8c0-1,1-1.3,2.5-1.3
	c1.6,0,3.2,0.3,4.7,0.8l-0.5-3.8C95.1,0.2,93.4,0,91.8,0c-4.3,0-7.1,1.7-7.1,5.2c0,6.1,8.2,4.9,8.2,7.6c0,1.1-0.8,1.7-2.8,1.7
	c-2.1-0.1-4.1-0.5-6-1.3l0.6,4c1.8,0.6,3.6,0.8,5.5,0.8c4.4,0,8-1.4,8-5.8C98.2,6.4,89.9,7.5,89.9,4.8L89.9,4.8L89.9,4.8z M83,6.6
	c0,4.4-3.1,7-8,7h-1.9v4.1h-5.2V0.5C70,0.1,72.1,0,74.3,0C79.7,0,83,1.7,83,6.6L83,6.6z M77.8,6.7c0-2.2-1.2-3.4-3.8-3.4h-0.9v7.1
	H74C76.7,10.4,77.8,8.9,77.8,6.7L77.8,6.7z M15.1,6.6c0,4.4-3.1,7-8,7H5.2v4.1H0V0.5C2.1,0.1,4.3,0,6.4,0C11.8,0,15.1,1.7,15.1,6.6z
	 M10,6.7c0-2.2-1.2-3.4-3.8-3.4H5.2v7.1h0.9C8.8,10.4,10,8.9,10,6.7L10,6.7z"/>
</svg>
