<svg width="132" height="14" viewBox="0 0 132 14" fill="none" xmlns="http://www.w3.org/2000/svg">
<path fill-rule="evenodd" clip-rule="evenodd" d="M122.448 0.702637H121.224V10.4286H122.448V7.34987C122.448 5.74054 123.078 4.621 124.478 4.621C125.527 4.69097 125.877 5.46065 125.877 7.00001V10.3936H127.102V6.47523C127.102 4.69097 126.332 3.64141 124.618 3.64141C123.708 3.64141 122.938 4.06124 122.483 4.76095H122.448V0.702637ZM111.218 2.34688H112.583V0.982452H111.218V2.34688ZM112.513 3.81627H111.288V10.4285H112.513V3.81627ZM72.9442 9.58873C72.5944 9.58873 71.9296 9.44879 71.4399 9.13392L71.3699 10.1835C71.9296 10.4634 72.5594 10.5333 73.1891 10.5333C74.3786 10.5333 75.4982 9.86861 75.4982 8.4692C75.4982 7.28331 74.6123 6.88603 73.8251 6.533C73.1957 6.25072 72.6294 5.99672 72.6294 5.39048C72.6294 4.83071 73.1541 4.58581 73.7839 4.58581C74.0638 4.58581 74.7985 4.76074 75.0783 4.93567L75.1833 3.88611C74.7285 3.74616 74.2387 3.64121 73.6789 3.64121C72.3495 3.64121 71.3349 4.30593 71.3349 5.67036C71.3349 6.69331 72.208 7.11997 72.9909 7.50253C73.6271 7.81341 74.2037 8.09516 74.2037 8.64412C74.2037 9.34383 73.504 9.58873 72.9442 9.58873ZM82.7748 7.14013C82.7748 5.14596 81.4453 3.67657 79.4162 3.67657C77.387 3.67657 76.0226 5.11097 76.0576 7.14013C76.0576 9.02934 77.422 10.6037 79.4162 10.6037C81.4103 10.6037 82.7748 9.02934 82.7748 7.14013ZM81.4803 7.10514C81.4803 8.29464 80.8506 9.58911 79.4162 9.58911C77.9468 9.58911 77.317 8.29464 77.352 7.10514C77.352 5.84566 78.1217 4.62118 79.4162 4.62118C80.7106 4.62118 81.4803 5.84566 81.4803 7.10514ZM89.4577 10.4287H88.2682V9.37916H88.2332C87.8833 10.1139 86.9737 10.5687 86.0641 10.5687C84.3498 10.5687 83.5801 9.5191 83.5801 7.73484V3.81648H84.8046V7.24505C84.8046 8.78441 85.1545 9.55409 86.204 9.62406C87.6035 9.62406 88.2332 8.50452 88.2332 6.89519V3.81648H89.4577V10.4287ZM92.0467 3.81613H90.8922V10.4284H92.1167V7.41963C92.1167 5.77532 92.8514 4.72576 93.936 4.72576C94.1459 4.72576 94.3908 4.72576 94.6007 4.83071V3.74616C94.3558 3.67619 94.1459 3.64121 93.796 3.64121C93.0963 3.64121 92.3966 4.131 92.0817 4.83071H92.0467V3.81613ZM99.253 4.93604C98.7982 4.72613 98.3084 4.65616 97.9235 4.65616C96.5591 4.65616 95.7894 5.88065 95.7894 7.14013C95.7894 8.32963 96.4192 9.62409 97.9935 9.62409C98.4133 9.62409 98.9381 9.48415 99.288 9.23925L99.3929 10.3238C98.9031 10.5687 98.3084 10.6037 97.8536 10.6037C95.8594 10.6037 94.495 9.02934 94.495 7.14013C94.495 5.11097 95.8594 3.67657 97.8536 3.67657C98.3434 3.67657 98.9731 3.78152 99.323 3.92147L99.253 4.93604ZM105.151 10.1813L105.236 10.1485H105.201V8.92401C104.921 9.1689 103.976 9.58873 103.172 9.58873C102.017 9.58873 101.002 8.67911 101.002 7.38465H105.725C105.725 5.25054 105.026 3.64121 102.822 3.64121C100.932 3.64121 99.7079 5.04062 99.7079 6.99981C99.7079 9.13392 100.792 10.5683 103.137 10.5683C104.155 10.5683 104.71 10.3524 105.151 10.1813ZM102.787 4.6208C103.836 4.6208 104.431 5.46045 104.431 6.47503H101.002C101.107 5.60039 101.597 4.6208 102.787 4.6208ZM106.74 3.81613H107.895V4.83071H107.93C108.245 4.131 108.944 3.64121 109.644 3.64121C109.994 3.64121 110.204 3.67619 110.449 3.74616V4.83071C110.239 4.72576 109.994 4.72576 109.784 4.72576C108.699 4.72576 107.965 5.77532 107.965 7.41963V10.4284H106.74V3.81613ZM119.929 10.1485C119.929 12.1427 118.88 13.2972 116.501 13.2972C115.801 13.2972 115.206 13.1922 114.122 12.8424L114.262 11.7228C115.206 12.1427 115.766 12.3176 116.641 12.3176C117.935 12.3176 118.705 11.443 118.705 10.0435V9.37882H118.67C118.145 10.0785 117.306 10.3934 116.466 10.3934C114.577 10.3934 113.632 8.85404 113.632 7.13975C113.632 5.42546 114.577 3.64121 116.606 3.64121C117.76 3.64121 118.425 4.06103 118.775 4.79573H118.81V3.81613H119.929V10.1485ZM118.705 7.20972C118.705 5.84529 118.075 4.65578 116.781 4.65578C115.556 4.65578 114.927 5.98523 114.927 7.10476C114.927 8.36424 115.626 9.44879 116.781 9.44879C117.935 9.44879 118.705 8.43421 118.705 7.20972ZM131.895 4.7959H130.146V8.3994C130.146 9.16908 130.6 9.5889 131.16 9.5889C131.545 9.5889 131.825 9.48394 132 9.344V10.3936L131.935 10.4098C131.662 10.4787 131.306 10.5685 130.95 10.5685C129.691 10.5685 128.921 9.97374 128.921 8.64429V4.7959H127.417V3.81631H128.921V2.27695L130.146 1.89211V3.81631H131.895V4.7959ZM63.0773 4.65585C61.7479 4.65585 61.2231 5.91533 61.2581 7.13982C61.2231 8.18938 61.7479 9.65877 63.0773 9.65877C64.4768 9.65877 65.0365 8.29434 65.0365 7.1748C65.0365 5.91533 64.4068 4.65585 63.0773 4.65585ZM66.226 10.4634H65.0715V9.5888H65.0365C64.6867 10.0786 63.952 10.6733 62.7625 10.6733C60.7683 10.6733 59.9286 8.88909 59.9286 7.06985C59.9286 5.28559 60.8733 3.71125 62.7975 3.71125C63.952 3.71125 64.6167 4.16606 65.0015 4.76081V0.737485H66.226V10.4634ZM53.1414 4.83075H51.3921V8.46923C51.3921 9.23891 51.8469 9.65873 52.4067 9.65873C52.7915 9.65873 53.0714 9.55378 53.2464 9.41384V10.4634L53.1817 10.4797C52.9088 10.5485 52.5528 10.6383 52.1968 10.6383C50.9373 10.6383 50.1676 10.0436 50.1676 8.71413V4.83075H48.6633V3.85115H50.1676V2.3118L51.3921 1.92696V3.85115H53.1414V4.83075ZM21.7246 3.85098H20.605H20.57V10.4632H21.7945V7.45448C21.7945 5.81017 22.5292 4.7606 23.6138 4.7606C23.8237 4.7606 24.0686 4.7606 24.2785 4.86556V3.78101C24.0336 3.71104 23.8237 3.67606 23.4738 3.67606C22.7741 3.67606 22.0744 4.16585 21.7595 4.86556H21.7246V3.85098ZM5.17687 10.4634H6.61127V6.78996C6.61127 6.58005 6.5413 6.40512 6.40136 6.26518L4.23226 4.09609C4.09232 3.95614 3.91739 3.88617 3.70748 3.88617H-0.000976562V5.35556H4.05733C4.65208 5.35556 5.17687 5.84536 5.17687 6.47509V10.4634ZM8.7805 10.4634H7.31111V6.78996C7.31111 6.58005 7.38108 6.40512 7.52103 6.26518L9.69012 4.09609C9.83006 3.95614 10.005 3.88617 10.2149 3.88617H13.9234V5.35556H9.90003C9.30528 5.35556 8.7805 5.84536 8.7805 6.47509V10.4634ZM57.8998 7.90967C57.8998 8.92425 57.27 9.65894 56.0455 9.65894C55.4858 9.65894 54.821 9.2741 54.821 8.57439C54.821 7.38489 56.4654 7.27993 57.1301 7.27993C57.2525 7.27993 57.3837 7.28868 57.5149 7.29742C57.6461 7.30617 57.7773 7.31492 57.8998 7.31492V7.90967ZM54.3662 5.35573C54.856 4.93591 55.5907 4.65602 56.2904 4.65602C57.5149 4.65602 57.9347 5.25078 57.9347 6.40529C57.445 6.37031 57.1301 6.37031 56.6403 6.37031C55.3808 6.37031 53.5616 6.89509 53.5616 8.53941C53.5616 10.0088 54.5761 10.6035 55.9756 10.6035C57.0951 10.6035 57.7248 10.0088 58.0397 9.58897H58.0747V10.4286H59.1592V6.44028C59.1592 4.62104 58.3896 3.71142 56.5003 3.71142C55.6607 3.71142 54.926 3.95632 54.3312 4.34115L54.3662 5.35573ZM26.5882 9.65894C27.8127 9.65894 28.4424 8.92425 28.4424 7.90967V7.31492C28.32 7.31492 28.1888 7.30617 28.0576 7.29742C27.9264 7.28868 27.7952 7.27993 27.6728 7.27993C27.008 7.27993 25.3637 7.38489 25.3637 8.57439C25.3637 9.2741 26.0285 9.65894 26.5882 9.65894ZM26.7981 4.65602C26.0984 4.65602 25.3637 4.93591 24.8739 5.35573L24.8389 4.34115C25.4337 3.95632 26.1684 3.71142 27.008 3.71142C28.8973 3.71142 29.6669 4.62104 29.6669 6.44028V10.4286H28.5824V9.58897H28.5474C28.2325 10.0088 27.6028 10.6035 26.4833 10.6035C25.0838 10.6035 24.0693 10.0088 24.0693 8.53941C24.0693 6.89509 25.8885 6.37031 27.148 6.37031H27.148C27.6378 6.37031 27.9527 6.37031 28.4424 6.40529C28.4424 5.25078 28.0226 4.65602 26.7981 4.65602ZM30.6466 3.85136H31.8361V4.90092H31.8711C32.2209 4.16623 33.1306 3.71142 34.0402 3.71142C35.7545 3.71142 36.5241 4.76098 36.5241 6.54524V10.4986H35.2647V7.07002C35.2647 5.53066 34.9148 4.76098 33.8653 4.69101C32.4658 4.69101 31.8361 5.81054 31.8361 7.41987V10.4986H30.6116V3.85136H30.6466ZM45.935 9.65894C45.5851 9.65894 44.9204 9.519 44.4306 9.20413L44.3606 10.2537C44.9204 10.5336 45.5501 10.6035 46.1798 10.6035C47.3694 10.6035 48.4889 9.97381 48.4889 8.53941C48.4889 7.37724 47.6096 6.97646 46.8245 6.61868C46.1917 6.33022 45.6201 6.06972 45.6201 5.46069C45.6201 4.90092 46.1449 4.65602 46.7746 4.65602C47.0545 4.65602 47.7892 4.83095 48.0691 5.00588L48.174 3.95632C47.7192 3.81637 47.2294 3.71142 46.6696 3.71142C45.3402 3.71142 44.3256 4.37614 44.3256 5.74057C44.3256 6.76352 45.1988 7.19018 45.9816 7.57274C46.6178 7.88362 47.1944 8.16537 47.1944 8.71433C47.1944 9.41404 46.4947 9.65894 45.935 9.65894ZM38.6229 7.13982C38.5879 5.91533 39.1127 4.65585 40.4422 4.65585C41.7716 4.65585 42.4014 5.91533 42.4014 7.1748C42.4014 8.29434 41.8416 9.65877 40.4422 9.65877C39.1477 9.65877 38.5879 8.18938 38.6229 7.13982ZM42.4363 10.4634H43.5909V0.737485H42.3664V4.76081H42.3314C41.9465 4.16606 41.2818 3.71125 40.1273 3.71125C38.2031 3.71125 37.2585 5.28559 37.2585 7.06985C37.2585 8.88909 38.0982 10.6733 40.0923 10.6733C41.2818 10.6733 42.0165 10.0786 42.3664 9.5888H42.4014V10.4634H42.4363Z" fill="#2175D9"/>
</svg>
